<svg width="160" height="160" viewBox="0 0 160 160" fill="none" xmlns="http://www.w3.org/2000/svg">
<rect width="160" height="160" rx="16" fill="#212121"/>
<path fill-rule="evenodd" clip-rule="evenodd" d="M84.0478 17.5439C81.7424 15.4854 78.2575 15.4854 75.9522 17.5439L32.027 56.7656C30.7373 57.9172 30 59.5635 30 61.2917L30 129.93C30 133.282 32.7198 136 36.0748 136H123.925C127.28 136 130 133.282 130 129.93V61.2917C130 59.5635 129.263 57.9172 127.973 56.7656L84.0478 17.5439ZM117.85 67.3617H86.0748V86.85L117.85 116.089L117.85 67.3617ZM108.361 123.86L51.6392 123.86L80 97.7636L108.361 123.86ZM73.9252 86.85L42.1495 116.089L42.1495 67.3617L73.9252 67.3617V86.85ZM73.9252 55.2217H51.9894L73.9252 35.6348V55.2217ZM86.0748 35.6348V55.2217L108.011 55.2217L86.0748 35.6348Z" fill="white"/>
</svg>
