<svg width="97" height="120" viewBox="0 0 97 120" fill="none" xmlns="http://www.w3.org/2000/svg">
<path fill-rule="evenodd" clip-rule="evenodd" d="M52.0872 1.54387C49.8672 -0.514625 46.5113 -0.514625 44.2913 1.54387L1.99206 40.7656C0.750118 41.9171 0.0401344 43.5635 0.0401344 45.2917L0.0401344 113.93C0.0401344 117.282 2.65922 120 5.89003 120L90.4885 120C93.7193 120 96.3384 117.282 96.3384 113.93L96.3384 45.2917C96.3384 43.5635 95.6284 41.9171 94.3865 40.7656L52.0872 1.54387ZM84.6386 51.3617L54.0392 51.3617V70.8499L84.6386 100.089L84.6386 51.3617ZM75.5002 107.86L20.8783 107.86L48.1893 81.7636L75.5002 107.86ZM42.3394 70.8499L11.7399 100.089L11.7399 51.3617H42.3394V70.8499ZM42.3394 39.2217H21.2156L42.3394 19.6348L42.3394 39.2217ZM54.0392 19.6348L54.0392 39.2217L75.1629 39.2217L54.0392 19.6348Z" fill="white"/>
</svg>
