<?xml version="1.0" standalone="no"?>
<!DOCTYPE svg PUBLIC "-//W3C//DTD SVG 20010904//EN"
 "http://www.w3.org/TR/2001/REC-SVG-20010904/DTD/svg10.dtd">
<svg version="1.0" xmlns="http://www.w3.org/2000/svg"
 width="260.000000pt" height="260.000000pt" viewBox="0 0 260.000000 260.000000"
 preserveAspectRatio="xMidYMid meet">
<metadata>
Created by potrace 1.11, written by Peter Selinger 2001-2013
</metadata>
<g transform="translate(0.000000,260.000000) scale(0.100000,-0.100000)"
fill="#000000" stroke="none">
<path d="M142 2574 c-57 -28 -96 -69 -123 -129 -18 -38 -19 -97 -19 -1146 l0
-1105 26 -52 c28 -57 69 -96 129 -123 38 -18 97 -19 1145 -19 1048 0 1107 1
1145 19 60 27 101 66 129 123 l26 52 0 1106 0 1106 -26 52 c-28 57 -69 96
-129 123 -38 18 -97 19 -1146 19 l-1105 0 -52 -26z m1213 -259 c40 -26 730
-648 742 -669 9 -16 12 -165 13 -603 l0 -583 -29 -32 -29 -33 -752 0 -752 0
-29 33 -29 32 0 583 c1 438 4 587 13 603 18 31 727 663 762 679 31 15 57 12
90 -10z"/>
<path d="M1017 1863 l-177 -158 172 -3 c95 -1 178 0 185 2 10 4 13 43 13 161
0 85 -4 155 -8 155 -4 0 -88 -71 -185 -157z"/>
<path d="M1390 1860 l0 -160 187 0 c113 0 183 4 178 9 -60 57 -351 311 -357
311 -4 0 -8 -72 -8 -160z"/>
<path d="M680 1109 l0 -402 22 19 c12 10 132 120 265 243 l243 223 -2 157 -3
156 -262 3 -263 2 0 -401z"/>
<path d="M1397 1503 c-4 -3 -7 -75 -7 -159 l0 -153 243 -223 c133 -123 253
-232 265 -242 l22 -19 0 401 0 402 -258 0 c-142 0 -262 -3 -265 -7z"/>
<path d="M1068 805 c-122 -113 -224 -210 -226 -215 -2 -6 170 -10 458 -10 288
0 460 4 458 10 -4 13 -448 420 -458 420 -4 0 -109 -92 -232 -205z"/>
</g>
</svg>
